0
SECTION
2
ENTITIES
0
CIRCLE
8
TUBE_OD
10
0.0000
20
0.0000
30
0.0
40
39.7000
0
CIRCLE
8
TUBE_ID
10
0.0000
20
0.0000
30
0.0
40
37.4000
0
LINE
8
SERVO
10
29.4000
20
-8.4000
30
0.0
11
37.4000
21
-8.4000
31
0.0
0
LINE
8
SERVO
10
37.4000
20
-8.4000
30
0.0
11
37.4000
21
8.4000
31
0.0
0
LINE
8
SERVO
10
37.4000
20
8.4000
30
0.0
11
29.4000
21
8.4000
31
0.0
0
LINE
8
SERVO
10
29.4000
20
8.4000
30
0.0
11
29.4000
21
-8.4000
31
0.0
0
CIRCLE
8
SHAFT
10
42.7000
20
0.0000
30
0.0
40
2.5000
0
LINE
8
SERVO
10
8.4000
20
29.4000
30
0.0
11
8.4000
21
37.4000
31
0.0
0
LINE
8
SERVO
10
8.4000
20
37.4000
30
0.0
11
-8.4000
21
37.4000
31
0.0
0
LINE
8
SERVO
10
-8.4000
20
37.4000
30
0.0
11
-8.4000
21
29.4000
31
0.0
0
LINE
8
SERVO
10
-8.4000
20
29.4000
30
0.0
11
8.4000
21
29.4000
31
0.0
0
CIRCLE
8
SHAFT
10
0.0000
20
42.7000
30
0.0
40
2.5000
0
LINE
8
SERVO
10
-29.4000
20
8.4000
30
0.0
11
-37.4000
21
8.4000
31
0.0
0
LINE
8
SERVO
10
-37.4000
20
8.4000
30
0.0
11
-37.4000
21
-8.4000
31
0.0
0
LINE
8
SERVO
10
-37.4000
20
-8.4000
30
0.0
11
-29.4000
21
-8.4000
31
0.0
0
LINE
8
SERVO
10
-29.4000
20
-8.4000
30
0.0
11
-29.4000
21
8.4000
31
0.0
0
CIRCLE
8
SHAFT
10
-42.7000
20
0.0000
30
0.0
40
2.5000
0
LINE
8
SERVO
10
-8.4000
20
-29.4000
30
0.0
11
-8.4000
21
-37.4000
31
0.0
0
LINE
8
SERVO
10
-8.4000
20
-37.4000
30
0.0
11
8.4000
21
-37.4000
31
0.0
0
LINE
8
SERVO
10
8.4000
20
-37.4000
30
0.0
11
8.4000
21
-29.4000
31
0.0
0
LINE
8
SERVO
10
8.4000
20
-29.4000
30
0.0
11
-8.4000
21
-29.4000
31
0.0
0
CIRCLE
8
SHAFT
10
-0.0000
20
-42.7000
30
0.0
40
2.5000
0
ENDSEC
0
EOF
